<?xml version="1.0" encoding="utf-8"?>
<!-- Generator: Adobe Illustrator 23.0.2, SVG Export Plug-In . SVG Version: 6.00 Build 0)  -->
<svg version="1.0" id="Capa_1" xmlns="http://www.w3.org/2000/svg" xmlns:xlink="http://www.w3.org/1999/xlink" x="0px" y="0px"
	 viewBox="0 0 100 100" style="enable-background:new 0 0 100 100;" xml:space="preserve">
<style type="text/css">
	.st0{fill:#BE3250;}
	.st1{fill:#BE3350;}
	.st2{fill:#3C121B;}
	.st3{fill:#3D121C;}
</style>
<g>
	<g>
		<path class="st0" d="M43.09,43.49c0.11,0.33-0.06,0.61-0.26,0.9c-0.67,1.01-1.34,2.02-1.98,3.04c-0.16,0.25-0.26,0.29-0.5,0.09
			c-0.74-0.6-1.49-1.17-2.26-1.74c-0.2-0.15-0.28-0.33-0.33-0.56c-0.39-2.05-0.77-4.11-1.17-6.16c-0.04-0.23-0.01-0.4,0.17-0.56
			c0.92-0.83,1.83-1.68,2.73-2.52c0.18-0.17,0.3-0.22,0.51-0.01c0.87,0.83,1.77,1.65,2.66,2.46c0.18,0.16,0.25,0.34,0.26,0.59
			C42.97,40.51,43.03,41.98,43.09,43.49z"/>
		<path class="st0" d="M39.4,24.99c0.3,0.35,0.38,0.7,0.36,1.12c-0.14,2.89-0.26,5.77-0.37,8.66c-0.01,0.23-0.08,0.39-0.25,0.54
			c-0.95,0.87-1.9,1.74-2.84,2.62c-0.16,0.15-0.3,0.24-0.54,0.14c-0.94-0.36-1.9-0.68-2.85-1.02c-0.15-0.06-0.34-0.08-0.18-0.36
			C34.95,32.81,37.17,28.92,39.4,24.99z"/>
		<path class="st0" d="M37.03,45.4c0.06,0.22-0.08,0.28-0.21,0.35c-0.58,0.32-1.15,0.63-1.72,0.96c-0.2,0.11-0.29,0.08-0.41-0.12
			c-1.2-2.12-2.41-4.24-3.62-6.36c-0.09-0.16-0.11-0.28-0.01-0.45c0.35-0.64,0.69-1.28,1.02-1.93c0.09-0.18,0.2-0.22,0.38-0.15
			c1.04,0.38,2.08,0.75,3.12,1.12c0.13,0.05,0.22,0.11,0.24,0.26C36.23,41.19,36.63,43.31,37.03,45.4z"/>
		<path class="st0" d="M40.58,26.99c1.13,1.99,2.27,3.98,3.4,5.97c0.49,0.86,0.97,1.72,1.46,2.57c0.13,0.22,0.17,0.36-0.06,0.56
			c-0.64,0.54-1.25,1.11-1.86,1.68c-0.18,0.17-0.28,0.18-0.47,0c-0.9-0.85-1.81-1.69-2.73-2.53c-0.11-0.1-0.18-0.2-0.17-0.37
			c0.11-2.62,0.22-5.24,0.33-7.86C40.52,27.01,40.55,27,40.58,26.99z"/>
		<path class="st0" d="M39.48,54.99c-0.48-0.83-0.92-1.6-1.35-2.36c-0.9-1.59-1.79-3.18-2.71-4.75c-0.17-0.3-0.15-0.42,0.16-0.57
			c0.53-0.26,1.05-0.56,1.56-0.86c0.22-0.13,0.38-0.15,0.6,0.02c0.8,0.64,1.62,1.27,2.44,1.89c0.18,0.14,0.28,0.3,0.34,0.51
			c0.26,0.83,0.52,1.67,0.78,2.5c0.04,0.13,0.11,0.26,0.02,0.42C40.71,52.82,40.12,53.87,39.48,54.99z"/>
		<path class="st0" d="M43.7,39.96c-0.31-1.02,0.22-1.65,0.96-2.21c0.41-0.31,0.78-0.67,1.15-1.03c0.17-0.16,0.25-0.13,0.35,0.05
			c0.59,1,1.18,2,1.78,3c0.11,0.18,0.05,0.3-0.03,0.44c-0.75,1.32-1.51,2.63-2.25,3.95c-0.13,0.23-0.26,0.31-0.49,0.18
			c-0.01-0.01-0.03-0.01-0.04-0.02c-1.27-0.47-1.27-0.47-1.31-1.84c-0.01-0.42-0.02-0.84-0.04-1.26
			C43.76,40.8,43.73,40.38,43.7,39.96z"/>
		<path class="st1" d="M41.9,50.75c-0.25-0.79-0.47-1.48-0.69-2.17c-0.06-0.17,0-0.31,0.09-0.45c0.72-1.09,1.44-2.19,2.15-3.29
			c0.14-0.22,0.26-0.28,0.5-0.15c0.35,0.19,0.91,0.19,1.04,0.51c0.12,0.3-0.3,0.67-0.49,1C43.65,47.68,42.8,49.17,41.9,50.75z"/>
	</g>
	<g>
		<path class="st2" d="M61.2,36.29c0.07,0.24-0.17,0.22-0.33,0.24c-1.07,0.11-2.14,0.17-3.2,0.34c-0.75,0.12-1.33-0.09-1.95-0.47
			c-1.07-0.66-2.19-1.26-3.29-1.87c-0.21-0.12-0.36-0.25-0.42-0.49c-0.3-1.18-0.6-2.36-0.93-3.54c-0.07-0.24-0.04-0.34,0.21-0.42
			c1.21-0.42,2.41-0.86,3.61-1.3c0.21-0.08,0.36-0.03,0.53,0.1c1.66,1.32,3.33,2.63,4.99,3.95c0.1,0.08,0.22,0.14,0.25,0.28
			C60.85,34.15,61.02,35.19,61.2,36.29z"/>
		<path class="st2" d="M41,23.99c0.24,0,0.4,0,0.56,0c4.47,0,8.94,0.01,13.42,0c0.41,0,0.52,0.09,0.45,0.49
			c-0.18,1.09-0.34,2.19-0.49,3.29c-0.02,0.18-0.11,0.24-0.26,0.29c-1.29,0.46-2.58,0.93-3.87,1.4c-0.21,0.08-0.38,0.01-0.55-0.07
			c-2.74-1.28-5.47-2.56-8.21-3.83c-0.12-0.06-0.22-0.12-0.28-0.24C41.53,24.91,41.29,24.49,41,23.99z"/>
		<path class="st2" d="M42.54,26.61c1.36,0.63,2.59,1.2,3.81,1.77c1.19,0.55,2.37,1.12,3.56,1.66c0.24,0.11,0.37,0.26,0.44,0.52
			c0.29,1.13,0.57,2.27,0.9,3.4c0.1,0.34,0,0.44-0.3,0.54c-0.93,0.32-1.88,0.61-2.77,1.03c-0.41,0.19-0.46,0.05-0.62-0.22
			c-1.6-2.77-3.21-5.54-4.82-8.31C42.69,26.92,42.65,26.83,42.54,26.61z"/>
		<path class="st2" d="M55.94,24c0.78,0,1.45,0.01,2.12,0c0.18,0,0.27,0.05,0.36,0.21c1.29,2.24,2.6,4.48,3.91,6.71
			c0.18,0.31,0.18,0.48-0.16,0.66c-0.4,0.21-0.77,0.68-1.14,0.67c-0.37-0.01-0.73-0.48-1.08-0.76c-1.34-1.05-2.66-2.11-4-3.15
			c-0.2-0.15-0.28-0.29-0.24-0.56c0.18-1.08,0.32-2.16,0.48-3.24C56.21,24.34,56.31,24.11,55.94,24z"/>
		<path class="st2" d="M48.11,36.25c0.24,0.07,0.42-0.05,0.6-0.12c0.89-0.33,1.79-0.66,2.67-1.02c0.27-0.11,0.48-0.08,0.72,0.06
			c1.26,0.73,2.52,1.45,3.8,2.15c0.26,0.14,0.32,0.31,0.3,0.58c-0.07,1.07-0.07,1.07-1.13,1.07c-1.67,0-3.35,0-5.02,0.01
			c-0.26,0-0.4-0.07-0.53-0.3C49.07,37.87,48.59,37.07,48.11,36.25z"/>
		<path class="st2" d="M67,38.97c-0.87,0-1.65-0.01-2.42,0.01c-0.21,0-0.33-0.1-0.45-0.23c-0.63-0.63-1.24-1.27-1.89-1.88
			c-0.24-0.23-0.25-0.51-0.3-0.79c-0.16-0.95-0.31-1.9-0.49-2.85c-0.04-0.21,0.01-0.33,0.18-0.43c0.32-0.2,0.64-0.39,0.93-0.61
			c0.27-0.21,0.4-0.19,0.58,0.12c1.09,1.9,2.2,3.78,3.3,5.67C66.61,38.28,66.78,38.59,67,38.97z"/>
		<path class="st3" d="M63.17,38.97c-2.01,0-4.02,0-6.02,0c-0.06,0-0.17,0.02-0.19-0.01c-0.19-0.31-0.04-0.64-0.02-0.97
			c0.01-0.17,0.02-0.34,0.28-0.36c1.32-0.12,2.64-0.25,3.96-0.39c0.27-0.03,0.45,0.05,0.64,0.24c0.47,0.46,0.96,0.9,1.45,1.35
			C63.24,38.88,63.21,38.92,63.17,38.97z"/>
	</g>
	<g>
		<path class="st2" d="M41,55.61c0.56-0.93,1.1-1.82,1.64-2.71c0.07-0.12,0.2-0.15,0.32-0.19c2.45-0.81,4.9-1.63,7.34-2.44
			c0.17-0.06,0.33-0.07,0.52-0.01c1.26,0.45,2.52,0.9,3.79,1.33c0.22,0.08,0.32,0.19,0.35,0.43c0.14,1.06,0.3,2.11,0.48,3.17
			c0.06,0.35-0.04,0.42-0.39,0.41c-3.14-0.01-6.28,0.01-9.42,0.01c-1.45,0-2.89,0.01-4.34,0.01C41.22,55.63,41.14,55.62,41,55.61z"
			/>
		<path class="st2" d="M56.97,42.99c1.3,0.12,2.62,0.26,3.95,0.37c0.29,0.02,0.3,0.16,0.26,0.37c-0.17,0.97-0.34,1.95-0.5,2.92
			c-0.03,0.16-0.13,0.24-0.25,0.33c-1.68,1.29-3.35,2.58-5.02,3.88c-0.17,0.13-0.32,0.15-0.53,0.07c-1.18-0.43-2.36-0.85-3.55-1.25
			c-0.25-0.09-0.32-0.17-0.24-0.43c0.33-1.15,0.62-2.3,0.93-3.45c0.06-0.21,0.18-0.35,0.38-0.46c1.34-0.73,2.67-1.47,4-2.21
			C56.58,43.04,56.74,42.94,56.97,42.99z"/>
		<path class="st2" d="M56.06,55.6c0.22-0.14,0.15-0.34,0.12-0.53c-0.16-1.06-0.31-2.11-0.48-3.17c-0.03-0.21-0.01-0.34,0.17-0.48
			c1.63-1.25,3.26-2.5,4.88-3.76c0.2-0.16,0.34-0.17,0.54-0.02c0.39,0.28,1,0.47,1.14,0.83c0.13,0.36-0.38,0.8-0.61,1.2
			c-1.12,1.91-2.27,3.8-3.39,5.71c-0.1,0.18-0.21,0.23-0.41,0.22C57.37,55.6,56.72,55.6,56.06,55.6z"/>
		<path class="st2" d="M47.32,45.13c0.01-0.26,0.17-0.41,0.27-0.58c0.63-1.08,1.27-2.15,1.89-3.23c0.15-0.26,0.31-0.34,0.61-0.33
			c1.87,0.01,3.74,0.01,5.61,0c0.29,0,0.36,0.07,0.44,0.36c0.23,0.83-0.09,1.24-0.85,1.59c-0.98,0.45-1.9,1.01-2.83,1.56
			c-0.43,0.25-0.86,0.4-1.36,0.42C49.85,44.98,48.61,45.06,47.32,45.13z"/>
		<path class="st2" d="M43.45,51.5c0.86-1.45,1.67-2.82,2.48-4.19c0.06-0.1,0.12-0.19,0.17-0.29c0.32-0.77,0.83-1.19,1.76-1.2
			c1.02-0.01,2.03-0.19,3.05-0.29c0.13-0.01,0.25,0,0.41,0c-0.34,1.28-0.68,2.53-1.02,3.78c-0.04,0.13-0.09,0.24-0.27,0.29
			C47.87,50.22,45.71,50.85,43.45,51.5z"/>
		<path class="st2" d="M67,40.99c-0.9,1.51-1.75,2.94-2.6,4.38c-0.44,0.73-0.88,1.46-1.31,2.2c-0.13,0.22-0.21,0.24-0.44,0.1
			c-1.27-0.77-1.27-0.76-0.99-2.23c0.11-0.55,0.22-1.11,0.28-1.67c0.04-0.39,0.22-0.66,0.5-0.92c0.56-0.52,1.1-1.07,1.65-1.61
			c0.15-0.15,0.29-0.26,0.54-0.25C65.38,41.01,66.15,40.99,67,40.99z"/>
		<path class="st2" d="M63.27,41.12c-0.52,0.47-1.04,0.93-1.55,1.42c-0.15,0.14-0.3,0.16-0.48,0.14c-1.32-0.13-2.65-0.27-3.97-0.38
			c-0.35-0.03-0.31-0.27-0.34-0.47c-0.12-0.84-0.12-0.84,0.73-0.84c1.84,0,3.67,0,5.51,0C63.2,41.04,63.23,41.08,63.27,41.12z"/>
	</g>
</g>
<g>
	<path class="st2" d="M78.89,64.42c0.18,0.05,0.37,0.07,0.55,0.06c0.54-0.03,1.08-0.09,1.61-0.2c0.84-0.18,1.66-0.4,2.41-0.86
		c0.43-0.27,0.54-0.75,0.27-1.12c-0.26-0.36-0.73-0.41-1.11-0.08c-1,0.87-2.17,1.35-3.43,1.63c-0.14,0.03-0.28,0.07-0.39,0.18
		C78.63,64.18,78.66,64.35,78.89,64.42z"/>
	<path class="st2" d="M92.94,69.59c-0.07-0.04-0.14,0-0.2,0.04c-0.17,0.12-0.28,0.3-0.39,0.47c-0.55,0.83-1.12,1.63-1.78,2.37
		c-0.21,0.23-0.42,0.46-0.68,0.63c-0.3,0.19-0.47,0.12-0.59-0.22c-0.05-0.16-0.08-0.34-0.08-0.51c-0.02-1.1,0.19-2.17,0.41-3.24
		c0.07-0.35,0.16-0.7,0.25-1.05c0.11-0.45-0.14-0.71-0.59-0.61c-0.17,0.04-0.35,0.09-0.49,0.21c-0.12,0.1-0.16,0.05-0.22-0.06
		c-0.3-0.54-0.77-0.8-1.36-0.85c-0.76-0.06-1.44,0.18-2.07,0.56c-1.25,0.73-2.15,1.82-2.82,3.09c-0.56,1.06-1.18,2.06-1.95,2.96
		c-0.32,0.37-0.65,0.74-1.1,0.96c-0.48,0.24-0.81,0.04-0.86-0.5c-0.03-0.38,0-0.76,0.08-1.13c0.31-1.49,0.83-2.91,1.51-4.27
		c0.2-0.4,0.06-0.74-0.37-0.85c-0.39-0.11-0.8,0.07-1.06,0.46c-0.19,0.29-0.32,0.62-0.48,0.94c-0.28,0.55-0.4,1.18-0.77,1.69
		c-0.27,0.38-0.53,0.77-0.8,1.14c-0.43,0.58-0.85,1.17-1.42,1.61c-0.43,0.34-0.75,0.22-0.9-0.31c-0.11-0.4-0.14-0.81-0.14-1.22
		c0.01-1.03,0.04-2.06,0.06-3.08c0.01-0.34-0.02-0.67-0.16-0.99c-0.18-0.43-0.57-0.61-1.01-0.48c-0.25,0.07-0.47,0.22-0.68,0.38
		c-0.43,0.33-0.81,0.71-1.14,1.14c-0.93,1.19-1.75,2.46-2.6,3.71c-0.22,0.32-0.43,0.64-0.67,1c-0.05-0.13-0.04-0.22-0.04-0.31
		c0.02-0.39,0.1-0.76,0.18-1.14c0.31-1.46,0.69-2.9,1.13-4.32c0.13-0.44-0.1-0.75-0.55-0.75c-0.45,0-0.87,0.3-1.01,0.74
		c-0.12,0.37-0.21,0.74-0.32,1.11c-0.12,0.38-0.13,0.81-0.35,1.15c-0.6,0.94-1.25,1.84-2.04,2.63c-0.13,0.13-0.28,0.26-0.45,0.34
		c-0.21,0.1-0.35,0.05-0.45-0.16c-0.09-0.2-0.12-0.41-0.12-0.62c-0.02-0.75,0.09-1.49,0.22-2.23c0.12-0.7,0.27-1.4,0.45-2.09
		c0.11-0.41-0.14-0.66-0.55-0.59c-0.18,0.03-0.37,0.09-0.51,0.2c-0.12,0.09-0.16,0.09-0.24-0.05c-0.23-0.43-0.59-0.69-1.05-0.8
		c-0.72-0.16-1.39,0.01-2.04,0.33c-1.32,0.65-2.25,1.71-2.98,2.95c-0.58,1-1.3,1.88-2.08,2.72c-0.23,0.25-0.47,0.48-0.77,0.64
		c-0.25,0.14-0.39,0.09-0.51-0.17c-0.07-0.14-0.12-0.29-0.15-0.44c-0.17-0.8-0.19-1.61-0.2-2.43c-0.01-0.58,0.03-1.15-0.04-1.73
		c-0.06-0.5-0.38-0.71-0.86-0.58c-0.2,0.05-0.37,0.15-0.54,0.27c-0.44,0.34-0.79,0.78-1.15,1.2c-0.53,0.61-1.02,1.26-1.59,1.83
		c-0.05,0.05-0.1,0.16-0.19,0.12c-0.09-0.04-0.09-0.15-0.09-0.24c-0.01-0.39,0.06-0.77,0.12-1.15c0.11-0.73,0.29-1.45,0.34-2.19
		c0.06-0.86-0.33-1.25-1.2-1.01c-0.33,0.09-0.6,0.31-0.86,0.54c-0.67,0.62-1.24,1.32-1.81,2.03c-0.93,1.17-1.8,2.39-2.66,3.62
		c-0.03,0.05-0.05,0.14-0.13,0.12c-0.09-0.02-0.07-0.12-0.07-0.19c0-0.25,0.06-0.49,0.12-0.73c0.32-1.29,0.8-2.53,1.19-3.79
		c0.08-0.24,0.1-0.47-0.09-0.67c-0.2-0.21-0.45-0.24-0.72-0.17c-0.49,0.14-0.73,0.52-0.89,0.97c-0.49,1.33-0.93,2.67-1.25,4.05
		c-0.14,0.61-0.28,1.22-0.19,1.85c0.1,0.67,0.56,0.9,1.16,0.58c0.37-0.2,0.66-0.5,0.89-0.86c0.89-1.4,1.86-2.75,2.88-4.06
		c0.5-0.64,0.99-1.28,1.59-1.83c0.07-0.07,0.15-0.19,0.25-0.14c0.09,0.05,0.04,0.18,0.03,0.27c-0.12,1.07-0.4,2.11-0.53,3.18
		c-0.06,0.45-0.13,0.9-0.02,1.35c0.1,0.45,0.5,0.65,0.91,0.46c0.22-0.1,0.41-0.27,0.58-0.44c0.43-0.44,0.81-0.92,1.2-1.39
		c0.54-0.64,1.06-1.31,1.64-1.92c0.08-0.08,0.16-0.22,0.27-0.18c0.12,0.05,0.06,0.2,0.06,0.31c0,0.84-0.01,1.68,0.01,2.52
		c0.02,0.63,0.07,1.27,0.36,1.85c0.24,0.49,0.58,0.64,1.1,0.52c0.65-0.16,1.16-0.57,1.64-1c0.4-0.36,0.74-0.77,1.13-1.22
		c-0.16,0.67-0.24,1.29-0.16,1.93c0.14,1.04,0.91,1.61,1.93,1.43c0.82-0.15,1.45-0.62,2.02-1.19c0.99-0.99,1.71-2.18,2.37-3.41
		c0.06-0.11,0.11-0.22,0.17-0.32c-0.01,0.37-0.06,0.72-0.09,1.07c-0.05,0.64-0.08,1.28,0.17,1.9c0.21,0.51,0.63,0.72,1.16,0.58
		c0.26-0.07,0.49-0.2,0.71-0.36c0.51-0.37,0.93-0.82,1.31-1.31c0.32-0.4,0.62-0.82,0.96-1.27c-0.17,0.74-0.31,1.44-0.42,2.14
		c-0.08,0.54-0.19,1.09-0.08,1.64c0.07,0.34,0.28,0.5,0.62,0.49c0.33-0.01,0.61-0.15,0.83-0.4c0.29-0.32,0.51-0.68,0.73-1.04
		c1.06-1.72,2.12-3.44,3.33-5.06c0.18-0.24,0.36-0.47,0.58-0.66c0.13-0.11,0.21-0.09,0.24,0.09c0.04,0.21,0.03,0.43,0.02,0.64
		c-0.06,1.18-0.19,2.36-0.09,3.55c0.04,0.51,0.12,1.01,0.38,1.46c0.22,0.39,0.55,0.59,1,0.56c0.44-0.03,0.82-0.22,1.18-0.47
		c0.64-0.46,1.16-1.05,1.63-1.68c0.12-0.16,0.24-0.31,0.38-0.5c0,0.08,0,0.1,0,0.13c-0.01,0.06-0.02,0.11-0.03,0.17
		c-0.12,0.66-0.23,1.31-0.12,1.98c0.12,0.75,0.54,1.13,1.29,1.13c0.39,0,0.73-0.12,1.06-0.31c0.64-0.37,1.15-0.9,1.62-1.47
		c0.17-0.2,0.32-0.41,0.53-0.67c-0.06,0.48-0.08,0.89-0.02,1.3c0.14,1.04,0.9,1.61,1.93,1.43c0.82-0.15,1.45-0.62,2.02-1.19
		c0.99-0.99,1.71-2.18,2.37-3.41c0.06-0.11,0.11-0.22,0.17-0.32c0.03,0.1,0.02,0.18,0.01,0.26c-0.11,0.73-0.18,1.45-0.07,2.18
		c0.15,1.06,0.86,1.42,1.77,0.89c0.28-0.16,0.52-0.36,0.75-0.58c1.11-1.1,1.96-2.4,2.71-3.77c0.03-0.06,0.05-0.14,0.08-0.21
		C93.01,69.72,93.02,69.64,92.94,69.59z M61.81,70.51c-0.62,1.24-1.3,2.44-2.29,3.43c-0.29,0.29-0.61,0.54-1.02,0.64
		c-0.49,0.12-0.87-0.13-0.95-0.64c-0.1-0.64,0.06-1.24,0.24-1.84c0.43-1.45,1.11-2.76,2.13-3.88c0.38-0.42,0.82-0.77,1.39-0.9
		c0.62-0.14,1.01,0.15,1.06,0.79c0.01,0.16,0,0.33,0,0.56C62.49,69.33,62.11,69.91,61.81,70.51z M87.39,70.27
		c-0.55,1.16-1.17,2.27-1.97,3.26c-0.25,0.31-0.53,0.6-0.84,0.85c-0.21,0.16-0.43,0.29-0.69,0.35c-0.48,0.11-0.86-0.13-0.94-0.63
		c-0.1-0.64,0.06-1.26,0.24-1.86c0.44-1.45,1.12-2.76,2.13-3.88c0.38-0.42,0.82-0.77,1.39-0.9c0.61-0.14,1,0.15,1.05,0.78
		c0.02,0.17,0,0.35,0,0.58C87.84,69.32,87.61,69.79,87.39,70.27z"/>
</g>
<g>
	<path class="st0" d="M28.03,66.85c-0.21,0.82-1.22,1.6-2.07,1.61c-0.47,0.01-0.94-0.05-1.4,0.08c-1.26,0.36-2.15,1.15-2.62,2.41
		c-0.29,0.77-0.54,1.54-0.82,2.31c-0.33,0.91-1.29,1.66-2.13,1.69c-0.03,0-0.06,0-0.09,0c-0.04-0.08,0-0.13,0.02-0.19
		c0.46-1.3,0.88-2.62,1.39-3.9c0.9-2.25,2.57-3.58,4.9-3.98c0.71-0.12,1.45-0.03,2.18-0.04C27.59,66.85,27.81,66.85,28.03,66.85z"/>
	<g>
		<path class="st0" d="M38.65,66.86c-0.12,0-0.24,0.01-0.36,0.03c-1.54,0.25-2.77,1.08-3.78,2.25c-0.7,0.81-1.14,1.76-1.27,2.85
			c-0.17,1.38,0.74,2.68,2.08,2.9c0.98,0.16,1.97,0.05,2.96,0.08c0.09,0,0.12-0.04,0.15-0.12c0.27-0.73-0.17-1.46-0.93-1.5
			c-0.3-0.02-0.6-0.01-0.9-0.01c-1.09,0-1.81-0.89-1.56-1.98c0.34-1.47,1.3-2.35,2.66-2.8c0.47-0.16,0.96-0.08,1.45-0.09
			c0.86-0.02,1.87-0.78,2.09-1.61C40.37,66.86,39.51,66.86,38.65,66.86z"/>
		<path class="st0" d="M37.24,70.1c-0.53,0-1.02,0.42-1.13,0.95c-0.08,0.36,0.13,0.65,0.49,0.66c0.52,0.01,1.04,0.02,1.55-0.01
			c0.79-0.04,1.73-0.82,1.95-1.59c-0.06,0-0.13-0.01-0.19-0.01C39.02,70.1,38.13,70.09,37.24,70.1z"/>
	</g>
	<g>
		<path class="st1" d="M30.95,73.35c-0.32-0.02-0.65-0.01-0.97-0.01c-0.78-0.01-1.36-0.48-1.51-1.22c-0.08-0.39-0.02-0.78,0.11-1.15
			c0.31-0.87,0.62-1.73,0.92-2.6c0.24-0.7,0.53-1.37,0.72-2.09c0.18-0.71-0.2-1.3-0.87-1.44c-0.22-0.05-0.29,0.03-0.36,0.23
			c-0.56,1.59-1.13,3.18-1.68,4.77c-0.24,0.7-0.54,1.39-0.63,2.14c-0.16,1.41,0.74,2.68,2.1,2.92c0.59,0.11,1.19,0.06,1.7,0.07
			c0.46,0,0.82,0,1.18,0c0.09,0,0.16,0,0.21-0.11C32.15,74.15,31.7,73.39,30.95,73.35z"/>
		<path class="st1" d="M31.2,68.37c-0.49,0.01-0.99,0.49-1.06,0.98c-0.05,0.34,0.11,0.58,0.43,0.63C30.73,70,30.9,70,31.06,70
			c0.89-0.02,1.9-0.78,2.13-1.63C32.51,68.36,31.86,68.35,31.2,68.37z"/>
	</g>
	<path class="st0" d="M18.36,62.45c-0.98-0.47-2.01-0.52-3.07-0.41c-1.36,0.15-2.59,0.68-3.74,1.43c-1.8,1.19-3.23,2.71-4.03,4.78
		c-0.41,1.06-0.65,2.15-0.44,3.29c0.37,1.96,1.91,3.3,3.89,3.41c1.22,0.07,2.45,0.01,3.45,0.03c1.24,0,2.26-0.01,3.28,0.01
		c0.19,0,0.26-0.06,0.32-0.24c0.61-1.74,1.23-3.48,1.84-5.22c0.33-0.94,0.68-1.86,0.77-2.87C20.8,64.92,19.88,63.18,18.36,62.45z
		 M17.78,67.51c-0.12,0.86-0.49,1.64-0.76,2.46c-0.24,0.73-0.52,1.45-0.76,2.18c-0.06,0.18-0.15,0.23-0.33,0.23
		c-0.64-0.01-1.28,0-1.92,0c0,0,0-0.01,0-0.01c-0.64,0-1.28,0.03-1.92-0.01c-1.44-0.08-2.45-1.38-2.23-2.85
		c0.24-1.65,1.13-2.87,2.4-3.83c0.84-0.64,1.78-1.01,2.84-1.09C16.74,64.45,18.02,65.82,17.78,67.51z"/>
</g>
<g>
</g>
<g>
</g>
<g>
</g>
<g>
</g>
<g>
</g>
<g>
</g>
</svg>
