<svg xmlns="http://www.w3.org/2000/svg" viewBox="0 0 86 60"><defs><style>.cls-1{fill:#fff;}.cls-2{fill:#3c121b;}.cls-3{fill:#be3250;}</style></defs><title>logo_arte_Inv</title><g id="Capa_2" data-name="Capa 2"><g id="Capa_2-2" data-name="Capa 2"><path class="cls-1" d="M71.89,48.43a1.69,1.69,0,0,0,.55.06,10.9,10.9,0,0,0,1.61-.2,7.42,7.42,0,0,0,2.41-.87.76.76,0,0,0,.27-1.12.72.72,0,0,0-1.11-.08,7.48,7.48,0,0,1-3.43,1.63.82.82,0,0,0-.39.18C71.63,48.19,71.66,48.37,71.89,48.43Z"/><path class="cls-1" d="M85.94,53.6c-.07-.05-.14,0-.2,0a1.75,1.75,0,0,0-.39.47,20.65,20.65,0,0,1-1.78,2.37,3.37,3.37,0,0,1-.68.63c-.3.19-.48.12-.59-.22a2.09,2.09,0,0,1-.08-.51,15.37,15.37,0,0,1,.41-3.24c.07-.35.17-.7.25-1s-.14-.72-.59-.62a1.16,1.16,0,0,0-.48.21c-.13.1-.16,0-.22-.06a1.63,1.63,0,0,0-1.37-.86,3.54,3.54,0,0,0-2.07.56,7.57,7.57,0,0,0-2.82,3.09,15.86,15.86,0,0,1-2,3,3.67,3.67,0,0,1-1.09.95c-.48.24-.82,0-.86-.49a3.57,3.57,0,0,1,.07-1.13A17.36,17.36,0,0,1,73,52.44a.55.55,0,0,0-.37-.85,1,1,0,0,0-1.07.46,9.21,9.21,0,0,0-.48.94,10.6,10.6,0,0,1-.77,1.68c-.27.38-.52.77-.8,1.15a8.08,8.08,0,0,1-1.42,1.61c-.44.33-.75.22-.91-.31a4.19,4.19,0,0,1-.13-1.22c0-1,0-2.06,0-3.09a2.39,2.39,0,0,0-.15-1,.8.8,0,0,0-1-.48,2.12,2.12,0,0,0-.67.38,6.15,6.15,0,0,0-1.14,1.14c-.93,1.19-1.75,2.46-2.6,3.71l-.67,1a.73.73,0,0,1,0-.31A7.5,7.5,0,0,1,61,56.12c.31-1.45.7-2.89,1.13-4.32a.53.53,0,0,0-.55-.75,1.07,1.07,0,0,0-1,.74c-.12.37-.21.74-.32,1.11A4.72,4.72,0,0,1,59.9,54a15.37,15.37,0,0,1-2,2.64,1.59,1.59,0,0,1-.44.33c-.21.11-.35.06-.46-.16a1.63,1.63,0,0,1-.12-.62A11.17,11.17,0,0,1,57.06,54c.12-.7.27-1.4.45-2.09.1-.41-.14-.66-.55-.59a1.18,1.18,0,0,0-.52.2c-.12.09-.16.09-.24-.05a1.5,1.5,0,0,0-1.05-.8,3,3,0,0,0-2,.33,7.07,7.07,0,0,0-3,3,15.74,15.74,0,0,1-2.07,2.72,3,3,0,0,1-.77.64c-.25.14-.39.1-.51-.16a2.28,2.28,0,0,1-.15-.44,13.14,13.14,0,0,1-.2-2.43,16.46,16.46,0,0,0,0-1.72.61.61,0,0,0-.86-.58,1.52,1.52,0,0,0-.54.27,8.16,8.16,0,0,0-1.15,1.2c-.53.62-1,1.26-1.59,1.84,0,.05-.1.15-.19.11s-.09-.14-.09-.23A5.54,5.54,0,0,1,42.09,54c.11-.73.29-1.45.33-2.19s-.32-1.25-1.2-1a2.13,2.13,0,0,0-.85.54,17.39,17.39,0,0,0-1.81,2c-.93,1.17-1.8,2.39-2.66,3.62,0,0,0,.14-.13.12s-.08-.12-.08-.19a3,3,0,0,1,.12-.73c.33-1.28.8-2.52,1.2-3.79a.61.61,0,0,0-.09-.66.67.67,0,0,0-.72-.17,1.36,1.36,0,0,0-.89,1,33.43,33.43,0,0,0-1.25,4.06,5,5,0,0,0-.19,1.85A.71.71,0,0,0,35,59a2.37,2.37,0,0,0,.89-.86q1.35-2.1,2.88-4a16.39,16.39,0,0,1,1.59-1.84c.07-.07.15-.19.25-.13s0,.17,0,.27c-.13,1.07-.4,2.11-.53,3.18a3.83,3.83,0,0,0,0,1.35.62.62,0,0,0,.91.46,2.07,2.07,0,0,0,.58-.44c.43-.44.81-.93,1.2-1.39.55-.65,1.06-1.31,1.65-1.92.07-.08.15-.22.26-.18s.07.21.07.31c0,.84,0,1.68,0,2.52a4.52,4.52,0,0,0,.36,1.85.85.85,0,0,0,1.1.51,3.75,3.75,0,0,0,1.65-1A13.46,13.46,0,0,0,49,56.46a5.11,5.11,0,0,0-.16,1.93,1.56,1.56,0,0,0,1.93,1.43,3.84,3.84,0,0,0,2-1.19,14.17,14.17,0,0,0,2.37-3.41l.16-.33c0,.37-.06.72-.08,1.07a4.09,4.09,0,0,0,.17,1.9.9.9,0,0,0,1.16.57,2.17,2.17,0,0,0,.71-.36,7.07,7.07,0,0,0,1.31-1.31c.32-.4.62-.82,1-1.27-.17.74-.31,1.44-.42,2.14a4.54,4.54,0,0,0-.08,1.64.55.55,0,0,0,.62.49,1.12,1.12,0,0,0,.83-.4,5.88,5.88,0,0,0,.73-1c1.06-1.72,2.12-3.44,3.33-5a3.71,3.71,0,0,1,.59-.66c.13-.11.21-.09.24.09a2.74,2.74,0,0,1,0,.64,26.27,26.27,0,0,0-.09,3.55,3.52,3.52,0,0,0,.38,1.46,1,1,0,0,0,1,.56,2.12,2.12,0,0,0,1.18-.47,7.43,7.43,0,0,0,1.64-1.67c.12-.16.23-.32.38-.51v.13c0,.06,0,.11,0,.17a6,6,0,0,0-.12,2,1.19,1.19,0,0,0,1.29,1.13,2.2,2.2,0,0,0,1.06-.3,6.49,6.49,0,0,0,1.62-1.47c.17-.2.33-.41.53-.67a4.76,4.76,0,0,0,0,1.3A1.56,1.56,0,0,0,76.18,60a3.86,3.86,0,0,0,2-1.2,14,14,0,0,0,2.37-3.41c.05-.1.11-.21.16-.32a.58.58,0,0,1,0,.26,7.65,7.65,0,0,0-.07,2.19c.14,1.06.85,1.42,1.77.89a3.55,3.55,0,0,0,.75-.59A16,16,0,0,0,85.9,54a1.72,1.72,0,0,0,.07-.21C86,53.74,86,53.65,85.94,53.6Zm-31.13.92A12.75,12.75,0,0,1,52.53,58a2.19,2.19,0,0,1-1,.64.71.71,0,0,1-.94-.64,4.13,4.13,0,0,1,.24-1.84,9.82,9.82,0,0,1,2.13-3.87,2.67,2.67,0,0,1,1.38-.9.79.79,0,0,1,1.07.79c0,.17,0,.33,0,.57A3.14,3.14,0,0,1,54.81,54.52Zm25.58-.24a15.94,15.94,0,0,1-2,3.26,4.51,4.51,0,0,1-.84.85,1.81,1.81,0,0,1-.69.35.71.71,0,0,1-.93-.62,4,4,0,0,1,.24-1.86,10,10,0,0,1,2.13-3.88,2.62,2.62,0,0,1,1.39-.89.77.77,0,0,1,1.05.77,5.44,5.44,0,0,1,0,.59A2.65,2.65,0,0,1,80.39,54.28Z"/><path class="cls-1" d="M21,50.86A2.43,2.43,0,0,1,19,52.48a5.47,5.47,0,0,0-1.4.08A3.73,3.73,0,0,0,14.93,55c-.29.76-.54,1.54-.82,2.31A2.65,2.65,0,0,1,12,59h-.09c0-.08,0-.13,0-.19.47-1.3.88-2.62,1.39-3.9a6.12,6.12,0,0,1,4.9-4,14.38,14.38,0,0,1,2.18,0Z"/><path class="cls-1" d="M31.65,50.87l-.36,0a6.27,6.27,0,0,0-3.78,2.25A5.31,5.31,0,0,0,26.23,56a2.59,2.59,0,0,0,2.09,2.9,22.47,22.47,0,0,0,3,.08c.08,0,.12,0,.15-.12a1.08,1.08,0,0,0-.93-1.51h-.9a1.54,1.54,0,0,1-1.56-2,3.73,3.73,0,0,1,2.66-2.81,5,5,0,0,1,1.45-.09,2.44,2.44,0,0,0,2.09-1.61Z"/><path class="cls-1" d="M30.23,54.11a1.21,1.21,0,0,0-1.13,1,.51.51,0,0,0,.49.66c.52,0,1,0,1.56,0a2.42,2.42,0,0,0,1.94-1.59H30.23Z"/><path class="cls-1" d="M23.94,57.36H23a1.46,1.46,0,0,1-1.5-1.22A2.06,2.06,0,0,1,21.58,55c.31-.86.62-1.73.92-2.6.24-.69.53-1.37.71-2.08a1.11,1.11,0,0,0-.87-1.44c-.21,0-.29,0-.36.22-.55,1.6-1.13,3.18-1.68,4.78A10.44,10.44,0,0,0,19.67,56a2.6,2.6,0,0,0,2.1,2.92,10,10,0,0,0,1.7.08h1.18c.09,0,.17,0,.21-.12A1.07,1.07,0,0,0,23.94,57.36Z"/><path class="cls-1" d="M24.2,52.38a1.23,1.23,0,0,0-1.06,1,.5.5,0,0,0,.43.63,2.64,2.64,0,0,0,.49,0,2.46,2.46,0,0,0,2.13-1.63C25.51,52.38,24.86,52.36,24.2,52.38Z"/><path class="cls-1" d="M11.35,46.46a5.45,5.45,0,0,0-3.06-.41,8.61,8.61,0,0,0-3.74,1.43,10,10,0,0,0-4,4.78,6,6,0,0,0-.44,3.29A4.1,4.1,0,0,0,4,59c1.23.06,2.45,0,3.45,0,1.24,0,2.26,0,3.28,0,.19,0,.27-.06.33-.24.61-1.74,1.23-3.47,1.84-5.21a11.84,11.84,0,0,0,.78-2.87A4.28,4.28,0,0,0,11.35,46.46Zm-.58,5.06A13.75,13.75,0,0,1,10,54c-.24.73-.52,1.45-.76,2.18a.29.29,0,0,1-.33.23H7c-.64,0-1.28,0-1.92,0a2.41,2.41,0,0,1-2.23-2.85,5.75,5.75,0,0,1,2.4-3.83,5.24,5.24,0,0,1,2.84-1.09A2.5,2.5,0,0,1,10.77,51.52Z"/><polygon class="cls-2" points="33.82 0 25 12.08 57.28 15.61 63 2.35 33.82 0"/><polygon class="cls-1" points="57.25 15.55 63 2.35 62.11 28.45 56.53 42.89 57.25 15.55"/><polygon class="cls-1" points="25.85 39.16 25 12.08 57.28 15.61 56.49 43 25.85 39.16"/><path class="cls-3" d="M48.92,14.66s-.9,3.23-2.21,4.09c-1.78,1.16-5.55,1.23-7.32,4.31-1.87,3.26-1.44,7.69-2.52,11-1.39,4.18-7.32,4.68-7.32,4.68s11.73.24,16.4-5.91,2-10.13,3-13.43c.5-1.64,4.52-4.21,4.52-4.21Z"/></g></g></svg>