<svg xmlns="http://www.w3.org/2000/svg" viewBox="0 0 88.81 22.97"><defs><style>.cls-1{fill:#fff;}.cls-2{fill:#3c121b;}.cls-3{fill:#be3250;}</style></defs><title>logo_arte_hInv</title><g id="Capa_2" data-name="Capa 2"><g id="Capa_3" data-name="Capa 3"><path class="cls-1" d="M78,11.13a1.24,1.24,0,0,0,.43,0A8.43,8.43,0,0,0,79.65,11a5.77,5.77,0,0,0,1.85-.66.59.59,0,0,0,.21-.86.55.55,0,0,0-.85-.06,5.94,5.94,0,0,1-2.63,1.25.54.54,0,0,0-.3.13C77.79,11,77.82,11.08,78,11.13Z"/><path class="cls-1" d="M88.77,15.09c-.06,0-.11,0-.16,0a1.27,1.27,0,0,0-.3.35A14.36,14.36,0,0,1,87,17.3a2.68,2.68,0,0,1-.52.49c-.23.14-.37.09-.45-.17a1.32,1.32,0,0,1-.06-.39,11.54,11.54,0,0,1,.31-2.49c.06-.27.13-.54.19-.81s-.11-.54-.45-.47a.82.82,0,0,0-.37.16c-.1.08-.12,0-.17,0a1.25,1.25,0,0,0-1.05-.65,2.64,2.64,0,0,0-1.59.43,5.82,5.82,0,0,0-2.16,2.37A12.18,12.18,0,0,1,79.14,18a2.81,2.81,0,0,1-.84.73c-.37.18-.62,0-.66-.38a2.75,2.75,0,0,1,.06-.86,13.19,13.19,0,0,1,1.15-3.28.42.42,0,0,0-.28-.65.75.75,0,0,0-.82.35,6.91,6.91,0,0,0-.36.72,9.56,9.56,0,0,1-.59,1.3c-.21.29-.41.59-.62.87A5.88,5.88,0,0,1,75.09,18c-.34.25-.58.17-.69-.24a3.31,3.31,0,0,1-.11-.94c0-.78,0-1.57,0-2.36a1.64,1.64,0,0,0-.12-.76.6.6,0,0,0-.77-.37,1.66,1.66,0,0,0-.52.29,4.53,4.53,0,0,0-.87.88c-.72.91-1.35,1.88-2,2.84l-.51.77a.54.54,0,0,1,0-.24,5.25,5.25,0,0,1,.14-.87c.24-1.12.53-2.22.86-3.32a.4.4,0,0,0-.42-.57.81.81,0,0,0-.77.57c-.09.28-.16.56-.25.84a3.11,3.11,0,0,1-.27.88,10.9,10.9,0,0,1-1.56,2,1.23,1.23,0,0,1-.34.26.23.23,0,0,1-.35-.12,1.14,1.14,0,0,1-.09-.48,8.85,8.85,0,0,1,.16-1.71c.1-.54.21-1.07.35-1.6a.34.34,0,0,0-.42-.46,1,1,0,0,0-.4.16c-.09.07-.12.07-.18,0a1.18,1.18,0,0,0-.81-.62,2.29,2.29,0,0,0-1.56.26,5.48,5.48,0,0,0-2.29,2.26,12,12,0,0,1-1.59,2.09,2.26,2.26,0,0,1-.58.49c-.19.1-.3.07-.4-.13a1.83,1.83,0,0,1-.11-.33,10.61,10.61,0,0,1-.15-1.86c0-.45,0-.89,0-1.33a.48.48,0,0,0-.67-.44,1.33,1.33,0,0,0-.41.21,6.38,6.38,0,0,0-.88.92c-.4.47-.78,1-1.22,1.41,0,0-.08.12-.15.09s-.06-.11-.07-.18a4.5,4.5,0,0,1,.1-.89c.08-.56.22-1.11.26-1.67s-.26-1-.93-.78a1.62,1.62,0,0,0-.65.42,13.61,13.61,0,0,0-1.39,1.55c-.71.9-1.38,1.84-2,2.77,0,0,0,.11-.1.1s-.06-.09-.06-.15a2.05,2.05,0,0,1,.1-.55c.25-1,.61-1.94.91-2.91a.46.46,0,0,0-.07-.51.5.5,0,0,0-.54-.13,1.07,1.07,0,0,0-.69.74,28,28,0,0,0-1,3.11,4,4,0,0,0-.14,1.42.54.54,0,0,0,.89.44,1.84,1.84,0,0,0,.68-.65c.69-1.08,1.43-2.11,2.21-3.11a12.5,12.5,0,0,1,1.21-1.41c.06-.05.12-.15.2-.1s0,.13,0,.21c-.1.82-.3,1.62-.41,2.43a3,3,0,0,0,0,1,.48.48,0,0,0,.7.35,1.45,1.45,0,0,0,.44-.34c.33-.33.62-.71.92-1.06.42-.5.82-1,1.26-1.47.06-.06.12-.17.21-.14s0,.16,0,.24c0,.64,0,1.29,0,1.93a3.42,3.42,0,0,0,.28,1.41.65.65,0,0,0,.84.4,2.89,2.89,0,0,0,1.26-.77,8.87,8.87,0,0,0,.87-.94,4,4,0,0,0-.12,1.48,1.19,1.19,0,0,0,1.47,1.1A2.93,2.93,0,0,0,63.37,19a10.6,10.6,0,0,0,1.82-2.62c0-.08.09-.16.13-.25,0,.29,0,.55-.07.82a3.15,3.15,0,0,0,.13,1.46.69.69,0,0,0,.89.44,1.73,1.73,0,0,0,.54-.28,5.31,5.31,0,0,0,1-1c.25-.31.48-.63.74-1-.13.57-.24,1.1-.33,1.64a3.82,3.82,0,0,0-.06,1.26.43.43,0,0,0,.48.38.89.89,0,0,0,.64-.31,5.72,5.72,0,0,0,.56-.8c.81-1.31,1.62-2.63,2.55-3.87a3.65,3.65,0,0,1,.45-.51c.1-.08.16-.07.19.07a2,2,0,0,1,0,.49A19,19,0,0,0,73,17.61a3,3,0,0,0,.29,1.13.79.79,0,0,0,.77.43,1.81,1.81,0,0,0,.91-.36,6.12,6.12,0,0,0,1.25-1.29l.29-.39v.1l0,.13a4.57,4.57,0,0,0-.09,1.52.92.92,0,0,0,1,.87,1.56,1.56,0,0,0,.81-.24,4.73,4.73,0,0,0,1.24-1.12l.41-.51a3.76,3.76,0,0,0,0,1A1.19,1.19,0,0,0,81.28,20a2.9,2.9,0,0,0,1.55-.91,10.73,10.73,0,0,0,1.82-2.61,2,2,0,0,1,.13-.25.45.45,0,0,1,0,.2,6.22,6.22,0,0,0-.06,1.67c.12.82.66,1.09,1.36.69a2.9,2.9,0,0,0,.58-.45,12.1,12.1,0,0,0,2.07-2.89,1,1,0,0,0,.06-.16C88.82,15.2,88.83,15.13,88.77,15.09ZM64.9,15.8a9.66,9.66,0,0,1-1.75,2.63,1.73,1.73,0,0,1-.78.49.55.55,0,0,1-.72-.49A3.22,3.22,0,0,1,61.83,17a7.79,7.79,0,0,1,1.63-3,2.12,2.12,0,0,1,1.07-.69.6.6,0,0,1,.81.61c0,.12,0,.25,0,.43A2.39,2.39,0,0,1,64.9,15.8Zm19.61-.19A12.77,12.77,0,0,1,83,18.12a4,4,0,0,1-.65.65,1.48,1.48,0,0,1-.53.27.55.55,0,0,1-.71-.48,3.14,3.14,0,0,1,.18-1.43,7.79,7.79,0,0,1,1.63-3A2.12,2.12,0,0,1,84,13.47a.6.6,0,0,1,.81.6c0,.13,0,.26,0,.44A1.94,1.94,0,0,1,84.51,15.61Z"/><path class="cls-1" d="M39,13a1.84,1.84,0,0,1-1.59,1.23,4.25,4.25,0,0,0-1.07.06,2.89,2.89,0,0,0-2,1.85c-.22.59-.42,1.18-.63,1.77a2,2,0,0,1-1.64,1.3H32c0-.06,0-.1,0-.15.35-1,.67-2,1.06-3A4.71,4.71,0,0,1,36.83,13a10.32,10.32,0,0,1,1.67,0Z"/><path class="cls-1" d="M47.15,13l-.28,0A4.87,4.87,0,0,0,44,14.75a4.07,4.07,0,0,0-1,2.19,2,2,0,0,0,1.6,2.22,15.61,15.61,0,0,0,2.27.06c.06,0,.09,0,.12-.09A.82.82,0,0,0,46.26,18h-.69a1.18,1.18,0,0,1-1.19-1.52,2.83,2.83,0,0,1,2-2.14,3.76,3.76,0,0,1,1.11-.08A1.85,1.85,0,0,0,49.13,13Z"/><path class="cls-1" d="M46.06,15.48a.94.94,0,0,0-.87.73.39.39,0,0,0,.38.51c.39,0,.79,0,1.19,0a1.86,1.86,0,0,0,1.49-1.22H46.06Z"/><path class="cls-1" d="M41.24,18h-.75A1.13,1.13,0,0,1,39.34,17a1.69,1.69,0,0,1,.08-.89c.24-.66.48-1.32.71-2s.4-1.05.54-1.6a.85.85,0,0,0-.66-1.1c-.17,0-.22,0-.28.17-.42,1.22-.86,2.44-1.29,3.66A8.35,8.35,0,0,0,38,16.93a2,2,0,0,0,1.61,2.24,7.27,7.27,0,0,0,1.3,0h.91c.07,0,.12,0,.16-.08A.82.82,0,0,0,41.24,18Z"/><path class="cls-1" d="M41.43,14.16a.94.94,0,0,0-.81.75.38.38,0,0,0,.33.48,2.3,2.3,0,0,0,.37,0A1.9,1.9,0,0,0,43,14.16Z"/><path class="cls-1" d="M31.58,9.62a4.21,4.21,0,0,0-2.35-.31,6.58,6.58,0,0,0-2.86,1.09,7.74,7.74,0,0,0-3.1,3.67,4.62,4.62,0,0,0-.33,2.52,3.13,3.13,0,0,0,3,2.61c.93.05,1.87,0,2.64,0h2.52a.21.21,0,0,0,.24-.18c.47-1.34,1-2.67,1.42-4a9.29,9.29,0,0,0,.59-2.2A3.28,3.28,0,0,0,31.58,9.62Zm-.44,3.88a11.45,11.45,0,0,1-.58,1.89c-.19.56-.4,1.11-.59,1.66a.22.22,0,0,1-.25.18c-.49,0-1,0-1.48,0h0c-.49,0-1,0-1.47,0A1.85,1.85,0,0,1,25.07,15a4.38,4.38,0,0,1,1.83-2.93,4.05,4.05,0,0,1,2.18-.84A1.92,1.92,0,0,1,31.14,13.5Z"/><polygon class="cls-2" points="4.71 0 0 6.45 17.24 8.34 20.3 1.25 4.71 0"/><polygon class="cls-1" points="17.22 8.31 20.3 1.25 19.82 15.2 16.84 22.91 17.22 8.31"/><polygon class="cls-1" points="0.46 20.91 0 6.45 17.24 8.34 16.82 22.97 0.46 20.91"/><path class="cls-3" d="M12.77,7.83S12.3,9.56,11.59,10c-.94.62-3,.66-3.9,2.31s-.77,4.11-1.35,5.85c-.74,2.23-3.91,2.5-3.91,2.5s6.27.13,8.76-3.16,1.08-5.41,1.62-7.17c.27-.88,2.41-2.25,2.41-2.25Z"/></g></g></svg>