<?xml version="1.0" encoding="utf-8"?>
<!-- Generator: Adobe Illustrator 23.0.1, SVG Export Plug-In . SVG Version: 6.00 Build 0)  -->
<svg version="1.1" id="Capa_1" xmlns="http://www.w3.org/2000/svg" xmlns:xlink="http://www.w3.org/1999/xlink" x="0px" y="0px"
	 viewBox="0 0 381.2 342.2" style="enable-background:new 0 0 381.2 342.2;" xml:space="preserve">
<g>
	<path d="M147.6,44.4c-23.6,15.3-42.5,36.8-54.5,62.2c-0.8,1.6-1.1,3.1-1.1,4.6c0,2,0.8,8.4,11.5,8.4h17.8c9,0,13.1-5.5,14.2-7.2
		c20.3-32.6,55.3-52.1,93.6-52.1c60.8,0,110.2,49.4,110.2,110.2S289.8,280.8,229,280.8c-38.9,0-74.1-19.9-94.4-53.3
		c-2.7-4.5-7.4-6.8-13.6-6.8h-18c-8,0-10.8,5.1-10.8,9.4c0,1.7,0.4,3.5,1.2,5.1c12.1,25.2,30.9,46.6,54.5,61.8
		c24.2,15.6,52.3,23.8,81.1,23.8c82.8,0,150.2-67.4,150.2-150.2S311.8,20.4,229,20.4C200,20.4,171.8,28.7,147.6,44.4z"/>
	<path d="M170.4,149.6h-113l21.1-21.1c2.9-2.9,2.9-7.5,0-10.4l-13.6-13.6c-2.9-2.9-7.5-2.9-10.4,0l-49,49c-1.1,1.1-1.7,2.4-2,3.8
		C3.2,158,3,158.8,3,159.6v21c0,0.7,0.1,1.4,0.3,2.1c0.1,1.7,0.8,3.5,2.1,4.8l49,49c2.9,2.9,7.5,2.9,10.4,0l13.6-13.6
		c2.9-2.9,2.9-7.5,0-10.4l-21.8-21.8h113.7c8.6,0,15.6-4.5,15.6-10v-21C186,154.1,179,149.6,170.4,149.6z"/>
</g>
</svg>
