<?xml version="1.0" encoding="utf-8"?>
<!-- Generator: Adobe Illustrator 23.0.1, SVG Export Plug-In . SVG Version: 6.00 Build 0)  -->
<svg version="1.1" id="Capa_1" xmlns="http://www.w3.org/2000/svg" xmlns:xlink="http://www.w3.org/1999/xlink" x="0px" y="0px"
	 viewBox="0 0 59.9 59.9" style="enable-background:new 0 0 59.9 59.9;" xml:space="preserve">
<path d="M30.1,1.3C14.2,1.3,1.3,14.1,1.3,30c0,15.9,12.9,28.8,28.8,28.8C46,58.8,58.9,45.9,58.9,30C58.9,14.1,46,1.3,30.1,1.3z
	 M11.2,48.9l1.6-9.3l7.6,7.6L11.2,48.9z M22.1,45.6L14.5,38l21-21l7.6,7.6L22.1,45.6z M48.3,19.5L44.8,23l-7.6-7.6l3.5-3.5
	c0.5-0.5,1-0.7,1.6-0.7c0.6,0,1.2,0.2,1.6,0.7l4.4,4.4C49.2,17.1,49.2,18.6,48.3,19.5z"/>
</svg>
